<svg width="28" height="28" viewBox="0 0 28 28" fill="none" xmlns="http://www.w3.org/2000/svg">
<path fill-rule="evenodd" clip-rule="evenodd" d="M13.7514 2.33374C16.7151 2.33374 19.1635 4.65734 19.4653 7.62915L19.5496 7.63017C21.1936 7.63017 23.1926 8.75367 23.8672 11.9048L24.7618 19.0297C25.0827 21.3292 24.6813 23.1737 23.5668 24.4967C22.4579 25.8127 20.7027 26.5092 18.4906 26.5092H9.02523C6.5954 26.5092 4.90258 25.8967 3.84923 24.6378C2.79136 23.3755 2.4376 21.482 2.79816 19.011L3.67802 11.9807C4.25628 8.75717 6.3709 7.63017 8.00817 7.63017C8.14952 6.28906 8.73723 5.01323 9.66959 4.05691C10.7411 2.96141 12.2185 2.33374 13.7276 2.33374H13.7514ZM19.5496 9.38017H8.00817C7.50815 9.38017 5.83686 9.58784 5.35725 12.2525L4.48192 19.2525C4.19732 21.216 4.41729 22.637 5.13728 23.4968C5.8482 24.3462 7.12037 24.7592 9.02523 24.7592H18.4906C19.6788 24.7592 21.3013 24.5153 22.281 23.351C23.0588 22.4282 23.3264 21.0538 23.077 19.2653L22.1937 12.2047C21.8172 10.4652 20.824 9.38017 19.5496 9.38017ZM17.0583 12.6283C17.5277 12.6283 17.9347 13.0203 17.9347 13.5033C17.9347 13.9863 17.5799 14.3783 17.1104 14.3783H17.0583C16.5889 14.3783 16.2079 13.9863 16.2079 13.5033C16.2079 13.0203 16.5889 12.6283 17.0583 12.6283ZM10.4479 12.6283C10.9173 12.6283 11.3243 13.0203 11.3243 13.5033C11.3243 13.9863 10.9683 14.3783 10.4989 14.3783H10.4479C9.97845 14.3783 9.59748 13.9863 9.59748 13.5033C9.59748 13.0203 9.97845 12.6283 10.4479 12.6283ZM13.748 4.08374H13.731C12.6641 4.08374 11.6243 4.52591 10.8703 5.29707C10.2561 5.92622 9.85443 6.7533 9.72449 7.62963L17.7513 7.62996C17.4599 5.62535 15.7752 4.08374 13.748 4.08374Z" fill="#FBFDF7"/>
</svg>
