<svg width="40" height="40" viewBox="0 0 40 40" fill="none" xmlns="http://www.w3.org/2000/svg">
<rect x="0.6" y="0.6" width="38.8" height="38.8" fill="#230A0A" stroke="#FBFDF7" stroke-width="1.2"/>
<path d="M11.4937 9.77437L9.91934 9.52477V8.33437H20.5177L20.7097 11.8096H19.1737L18.4633 9.69757L14.3161 9.48637V14.92L17.1769 14.8624L17.5417 13.1728H18.7705V18.0496H17.5609L17.1769 16.3216L14.3161 16.2448V21.256L17.2537 21.448V22.6H10.0153V21.448L11.4937 21.256V9.77437Z" fill="#FBFDF7"/>
<path d="M24.1181 32.8112C23.4268 32.8112 22.806 32.7536 22.2556 32.6384C21.7052 32.5232 21.0908 32.3696 20.4124 32.1776C19.9644 32.0496 19.6636 31.9792 19.51 31.9664L19.6828 28.4144H21.238L21.6604 30.8912C21.8268 31.0704 22.1212 31.2304 22.5436 31.3712C22.9788 31.512 23.4716 31.5824 24.0221 31.5824C24.8797 31.5824 25.5197 31.3968 25.9421 31.0256C26.3773 30.6416 26.5949 30.1104 26.5949 29.432C26.5949 28.984 26.4669 28.6 26.2109 28.28C25.9548 27.9472 25.6028 27.6528 25.1548 27.3968C24.7068 27.128 24.0924 26.8208 23.3117 26.4752C22.2492 25.9888 21.366 25.4128 20.662 24.7472C19.9708 24.0688 19.6252 23.1536 19.6252 22.0016C19.6252 21.2848 19.8108 20.6384 20.182 20.0624C20.5532 19.4736 21.1036 19.0128 21.8332 18.68C22.5756 18.3344 23.478 18.1616 24.5404 18.1616C25.1677 18.1616 25.7181 18.2064 26.1917 18.296C26.6781 18.3856 27.2029 18.5072 27.7661 18.6608C28.0989 18.7504 28.3485 18.808 28.5149 18.8336L28.3997 22.1936H26.8637L26.4605 19.832C26.3453 19.7168 26.1149 19.608 25.7693 19.5056C25.4236 19.3904 25.0396 19.3328 24.6172 19.3328C23.8492 19.3328 23.2668 19.512 22.87 19.8704C22.486 20.216 22.294 20.6832 22.294 21.272C22.294 21.7456 22.4348 22.1552 22.7164 22.5008C23.0108 22.8464 23.3628 23.1408 23.7724 23.384C24.182 23.6144 24.8285 23.9472 25.7117 24.3824C26.4285 24.728 27.0429 25.0672 27.5548 25.4C28.0669 25.7328 28.5085 26.168 28.8797 26.7056C29.2508 27.2304 29.4364 27.8512 29.4364 28.568C29.4364 29.272 29.2572 29.944 28.8988 30.584C28.5533 31.224 27.9773 31.7552 27.1709 32.1776C26.3773 32.6 25.3597 32.8112 24.1181 32.8112Z" fill="#FBFDF7"/>
</svg>
