<svg width="84" height="68" viewBox="0 0 84 68" fill="none" xmlns="http://www.w3.org/2000/svg">
<path d="M82.8899 33.0607L74.0774 11.5883C73.8526 11.0339 73.4764 10.5608 72.9958 10.2281C72.5153 9.89536 71.9515 9.71768 71.3749 9.71719H62.5624V3.58222C62.5624 2.76868 62.253 1.98845 61.7021 1.41319C61.1512 0.837921 60.404 0.51474 59.6249 0.51474H3.81244C3.03337 0.51474 2.2862 0.837921 1.73531 1.41319C1.18442 1.98845 0.874939 2.76868 0.874939 3.58222V55.7294C0.874939 56.543 1.18442 57.3232 1.73531 57.8985C2.2862 58.4737 3.03337 58.7969 3.81244 58.7969H10.0987C10.7751 61.3962 12.2519 63.6908 14.3011 65.3268C16.3503 66.9627 18.858 67.849 21.4374 67.849C24.0169 67.849 26.5246 66.9627 28.5738 65.3268C30.623 63.6908 32.0997 61.3962 32.7762 58.7969H51.2237C51.9001 61.3962 53.3769 63.6908 55.4261 65.3268C57.4753 66.9627 59.983 67.849 62.5624 67.849C65.1419 67.849 67.6496 66.9627 69.6988 65.3268C71.748 63.6908 73.2247 61.3962 73.9012 58.7969H80.1874C80.9665 58.7969 81.7137 58.4737 82.2646 57.8985C82.8155 57.3232 83.1249 56.543 83.1249 55.7294V34.257C83.1242 33.8459 83.0443 33.439 82.8899 33.0607ZM62.5624 15.8521H69.4362L75.7224 31.1896H62.5624V15.8521ZM21.4374 61.8644C20.2755 61.8644 19.1396 61.5046 18.1735 60.8305C17.2073 60.1563 16.4543 59.1982 16.0096 58.0772C15.565 56.9562 15.4486 55.7226 15.6753 54.5325C15.902 53.3425 16.4616 52.2493 17.2832 51.3913C18.1048 50.5334 19.1516 49.9491 20.2913 49.7123C21.4309 49.4756 22.6122 49.5971 23.6857 50.0614C24.7592 50.5258 25.6768 51.3121 26.3223 52.321C26.9679 53.3299 27.3124 54.516 27.3124 55.7294C27.3124 57.3565 26.6935 58.917 25.5917 60.0675C24.4899 61.218 22.9956 61.8644 21.4374 61.8644ZM51.2237 52.6619H32.7762C32.0997 50.0626 30.623 47.768 28.5738 46.1321C26.5246 44.4961 24.0169 43.6098 21.4374 43.6098C18.858 43.6098 16.3503 44.4961 14.3011 46.1321C12.2519 47.768 10.7751 50.0626 10.0987 52.6619H6.74994V6.6497H56.6874V45.1773C55.3498 45.988 54.1786 47.0664 53.241 48.3508C52.3034 49.6352 51.6179 51.1003 51.2237 52.6619ZM62.5624 61.8644C61.4005 61.8644 60.2646 61.5046 59.2985 60.8305C58.3323 60.1563 57.5793 59.1982 57.1346 58.0772C56.69 56.9562 56.5736 55.7226 56.8003 54.5325C57.027 53.3425 57.5866 52.2493 58.4082 51.3913C59.2298 50.5334 60.2766 49.9491 61.4163 49.7123C62.5559 49.4756 63.7372 49.5971 64.8107 50.0614C65.8842 50.5258 66.8018 51.3121 67.4473 52.321C68.0929 53.3299 68.4374 54.516 68.4374 55.7294C68.4374 57.3565 67.8185 58.917 66.7167 60.0675C65.6149 61.218 64.1206 61.8644 62.5624 61.8644ZM77.2499 52.6619H73.9012C73.2516 50.0347 71.7864 47.7064 69.7348 46.0414C67.6831 44.3763 65.1608 43.4683 62.5624 43.4595V37.3245H77.2499V52.6619Z" fill="#1E280B"/>
</svg>
