<svg width="84" height="62" viewBox="0 0 84 62" fill="none" xmlns="http://www.w3.org/2000/svg">
<path d="M68.3382 31.1439V28.0764C68.3382 20.7545 65.5566 13.7325 60.6053 8.55511C55.654 3.37773 48.9386 0.469116 41.9363 0.469116C34.9341 0.469116 28.2187 3.37773 23.2674 8.55511C18.3161 13.7325 15.5344 20.7545 15.5344 28.0764V31.1439C11.6443 31.1439 7.91353 32.7598 5.16279 35.6361C2.41206 38.5124 0.866718 42.4136 0.866718 46.4813C0.866718 50.549 2.41206 54.4501 5.16279 57.3265C7.91353 60.2028 11.6443 61.8187 15.5344 61.8187H21.4015V28.0764C21.4015 22.3816 23.565 16.92 27.416 12.8932C31.2671 8.86633 36.4902 6.60407 41.9363 6.60407C47.3825 6.60407 52.6056 8.86633 56.4566 12.8932C60.3077 16.92 62.4711 22.3816 62.4711 28.0764V61.8187H68.3382C72.2284 61.8187 75.9591 60.2028 78.7099 57.3265C81.4606 54.4501 83.006 50.549 83.006 46.4813C83.006 42.4136 81.4606 38.5124 78.7099 35.6361C75.9591 32.7598 72.2284 31.1439 68.3382 31.1439ZM6.73381 46.4813C6.73381 44.0407 7.66101 41.7 9.31145 39.9742C10.9619 38.2484 13.2004 37.2789 15.5344 37.2789V55.6837C13.2004 55.6837 10.9619 54.7142 9.31145 52.9884C7.66101 51.2626 6.73381 48.9219 6.73381 46.4813V46.4813ZM68.3382 55.6837V37.2789C70.6723 37.2789 72.9108 38.2484 74.5612 39.9742C76.2117 41.7 77.1389 44.0407 77.1389 46.4813C77.1389 48.9219 76.2117 51.2626 74.5612 52.9884C72.9108 54.7142 70.6723 55.6837 68.3382 55.6837V55.6837Z" fill="#1E280B"/>
</svg>
