<svg width="94" height="99" viewBox="0 0 94 99" fill="none" xmlns="http://www.w3.org/2000/svg">
<path d="M76.2722 27.6716H17.6013C12.7408 27.6716 8.80066 31.7916 8.80066 36.874V73.6837C8.80066 78.7661 12.7408 82.8862 17.6013 82.8862H76.2722C81.1326 82.8862 85.0728 78.7661 85.0728 73.6837V36.874C85.0728 31.7916 81.1326 27.6716 76.2722 27.6716Z" stroke="#1E280B" stroke-width="5.86709" stroke-linejoin="round"/>
<path d="M75.4214 27.6715V21.9199C75.421 20.5093 75.1228 19.1161 74.5482 17.8399C73.9736 16.5636 73.1366 15.4357 72.0971 14.5366C71.0576 13.6375 69.8411 12.9893 68.5345 12.6385C67.2278 12.2876 65.8632 12.2425 64.538 12.5066L16.2519 21.1243C14.155 21.5422 12.2633 22.7121 10.903 24.4323C9.54274 26.1525 8.79921 28.3151 8.80066 30.5472V39.9414" stroke="#1E280B" stroke-width="5.86709" stroke-linejoin="round"/>
<path d="M67.4715 61.4138C66.3111 61.4138 65.1768 61.054 64.2119 60.3799C63.2471 59.7058 62.4951 58.7476 62.051 57.6266C61.607 56.5056 61.4908 55.2721 61.7172 54.082C61.9436 52.8919 62.5023 51.7988 63.3229 50.9408C64.1434 50.0828 65.1888 49.4985 66.3269 49.2618C67.465 49.0251 68.6447 49.1466 69.7168 49.6109C70.7888 50.0753 71.7051 50.8616 72.3498 51.8705C72.9945 52.8794 73.3386 54.0655 73.3386 55.2789C73.3386 56.906 72.7205 58.4664 71.6202 59.617C70.5199 60.7675 69.0276 61.4138 67.4715 61.4138Z" fill="#1E280B"/>
</svg>
