<svg width="40" height="40" viewBox="0 0 40 40" fill="none" xmlns="http://www.w3.org/2000/svg">
<circle cx="20" cy="20" r="20" fill="black"/>
<path d="M14.4 25.3844V28.5348L15.612 27.7744L19.4216 25.3844H23.2C24.0824 25.3844 24.8 24.6341 24.8 23.7114V17.0192C24.8 16.0966 24.0824 15.3462 23.2 15.3462H13.6C12.7176 15.3462 12 16.0966 12 17.0192V23.7114C12 24.6341 12.7176 25.3844 13.6 25.3844H14.4ZM13.6 17.0192H23.2V23.7114H18.9784L16 25.5802V23.7114H13.6V17.0192Z" fill="#FBFDF7"/>
<path d="M26.4002 12H16.8002C15.9178 12 15.2002 12.7504 15.2002 13.6731H24.8002C25.6826 13.6731 26.4002 14.4234 26.4002 15.3461V22.0383C27.2826 22.0383 28.0002 21.288 28.0002 20.3653V13.6731C28.0002 12.7504 27.2826 12 26.4002 12Z" fill="#FBFDF7"/>
</svg>
