<svg width="40" height="40" viewBox="0 0 40 40" fill="none" xmlns="http://www.w3.org/2000/svg">
<circle cx="20" cy="20" r="20" fill="#230A0A"/>
<path d="M12.063 9.1744L10.4886 8.9248V7.7344H21.087L21.279 11.2096H19.743L19.0326 9.0976L14.8854 8.8864V14.32L17.7462 14.2624L18.111 12.5728H19.3398V17.4496H18.1302L17.7462 15.7216L14.8854 15.6448V20.656L17.823 20.848V22H10.5846V20.848L12.063 20.656V9.1744Z" fill="#FBFDF7"/>
<path d="M24.3416 32.2112C23.6504 32.2112 23.0296 32.1536 22.4792 32.0384C21.9288 31.9232 21.3144 31.7696 20.636 31.5776C20.188 31.4496 19.8872 31.3792 19.7336 31.3664L19.9064 27.8144H21.4616L21.884 30.2912C22.0504 30.4704 22.3448 30.6304 22.7672 30.7712C23.2024 30.912 23.6952 30.9824 24.2456 30.9824C25.1032 30.9824 25.7432 30.7968 26.1656 30.4256C26.6008 30.0416 26.8184 29.5104 26.8184 28.832C26.8184 28.384 26.6904 28 26.4344 27.68C26.1784 27.3472 25.8264 27.0528 25.3784 26.7968C24.9304 26.528 24.316 26.2208 23.5352 25.8752C22.4728 25.3888 21.5896 24.8128 20.8856 24.1472C20.1944 23.4688 19.8488 22.5536 19.8488 21.4016C19.8488 20.6848 20.0344 20.0384 20.4056 19.4624C20.7768 18.8736 21.3272 18.4128 22.0568 18.08C22.7992 17.7344 23.7016 17.5616 24.764 17.5616C25.3912 17.5616 25.9416 17.6064 26.4152 17.696C26.9016 17.7856 27.4264 17.9072 27.9896 18.0608C28.3224 18.1504 28.572 18.208 28.7384 18.2336L28.6232 21.5936H27.0872L26.684 19.232C26.5688 19.1168 26.3384 19.008 25.9928 18.9056C25.6472 18.7904 25.2632 18.7328 24.8408 18.7328C24.0728 18.7328 23.4904 18.912 23.0936 19.2704C22.7096 19.616 22.5176 20.0832 22.5176 20.672C22.5176 21.1456 22.6584 21.5552 22.94 21.9008C23.2344 22.2464 23.5864 22.5408 23.996 22.784C24.4056 23.0144 25.052 23.3472 25.9352 23.7824C26.652 24.128 27.2664 24.4672 27.7784 24.8C28.2904 25.1328 28.732 25.568 29.1032 26.1056C29.4744 26.6304 29.66 27.2512 29.66 27.968C29.66 28.672 29.4808 29.344 29.1224 29.984C28.7768 30.624 28.2008 31.1552 27.3944 31.5776C26.6008 32 25.5832 32.2112 24.3416 32.2112Z" fill="#FBFDF7"/>
</svg>
