<svg width="28" height="28" viewBox="0 0 28 28" fill="none" xmlns="http://www.w3.org/2000/svg">
<path fill-rule="evenodd" clip-rule="evenodd" d="M5.73059 5.90416C5.73286 5.90416 5.67617 5.96483 5.60473 6.03716C5.33034 6.31133 4.76229 6.88183 4.75656 8.07533C4.74755 9.74483 5.81449 12.8447 10.9519 18.1297C16.0656 23.389 19.0737 24.4997 20.6996 24.4997H20.7234C21.8833 24.4938 22.4366 23.9082 22.7042 23.627C22.7859 23.5407 22.8516 23.4777 22.8981 23.438C24.0274 22.269 24.6057 21.3987 24.6001 20.841C24.5921 20.2717 23.9038 19.5985 22.9525 18.6675C22.6498 18.3712 22.321 18.0492 21.974 17.6922C21.0749 16.7693 20.6293 16.9268 19.6497 17.2815C18.2947 17.7703 16.4352 18.4353 13.5462 15.4615C10.6526 12.4865 11.3 10.5755 11.774 9.18133C12.1164 8.17333 12.2729 7.71366 11.3726 6.78733C11.02 6.42566 10.7036 6.08266 10.4122 5.76766C9.51309 4.79466 8.86453 4.09116 8.31462 4.08299H8.30555C7.76244 4.08299 6.91886 4.68033 5.72492 5.90883C5.72832 5.90533 5.72946 5.90416 5.73059 5.90416ZM20.7007 26.2497C17.8752 26.2497 14.1913 23.935 9.75006 19.3675C5.29179 14.7813 3.03885 10.9792 3.05576 8.06599C3.06606 6.14099 4.04683 5.15516 4.41533 4.78533C4.43461 4.76083 4.50037 4.69433 4.52305 4.67099C6.14898 2.99683 7.2454 2.32016 8.33616 2.33282C9.60266 2.35049 10.5041 3.32583 11.6447 4.56133C11.927 4.86699 12.2332 5.19949 12.5745 5.54949C14.2299 7.25283 13.7582 8.64233 13.3795 9.75766C12.9668 10.9745 12.6096 12.0245 14.748 14.2248C16.8887 16.4252 17.9092 16.0577 19.0873 15.6295C20.1724 15.2398 21.5194 14.7522 23.177 16.4555C23.5127 16.8008 23.8313 17.1123 24.1249 17.4005C25.3313 18.58 26.2838 19.5122 26.2999 20.8188C26.3132 21.933 25.6556 23.0682 24.032 24.74L23.3131 24.2383L23.9208 24.8497C23.5614 25.2288 22.6044 26.2392 20.7325 26.2497H20.7007Z" fill="#FBFDF7"/>
</svg>
