<svg width="28" height="28" viewBox="0 0 28 28" fill="none" xmlns="http://www.w3.org/2000/svg">
<path fill-rule="evenodd" clip-rule="evenodd" d="M13.3098 2.33337C19.3986 2.33337 24.3512 7.42937 24.3512 13.6944C24.3512 16.6502 23.2488 19.346 21.4448 21.3693L24.9945 25.0142C25.3268 25.356 25.3279 25.909 24.9957 26.2509C24.8301 26.4235 24.6113 26.5087 24.3936 26.5087C24.177 26.5087 23.9593 26.4235 23.7927 26.2532L20.2 22.5669C18.3102 24.1242 15.9139 25.0565 13.3098 25.0565C7.2211 25.0565 2.26733 19.9594 2.26733 13.6944C2.26733 7.42937 7.2211 2.33337 13.3098 2.33337ZM13.3098 4.08337C8.15878 4.08337 3.9681 8.39421 3.9681 13.6944C3.9681 18.9945 8.15878 23.3065 13.3098 23.3065C18.4597 23.3065 22.6504 18.9945 22.6504 13.6944C22.6504 8.39421 18.4597 4.08337 13.3098 4.08337Z" fill="#FBFDF7"/>
</svg>
